<svg width="50" height="50" viewBox="0 0 50 50" fill="none" xmlns="http://www.w3.org/2000/svg">
<path d="M42.0654 28.8333V34.971C42.0654 36.431 41.0188 37.6812 39.5814 37.938L30.008 39.6479C29.8319 39.6795 29.6534 39.6954 29.4745 39.6955C28.042 39.6955 26.7717 38.6704 26.511 37.211C26.2183 35.5724 27.3094 34.0067 28.948 33.714L36.0375 32.4477V28.8334C36.0375 27.1688 37.3869 25.8194 39.0514 25.8194C40.716 25.8194 42.0654 27.1688 42.0654 28.8333ZM30.7066 5.25847C30.7726 5.25856 30.8379 5.24561 30.8989 5.22035C30.9599 5.19509 31.0152 5.15803 31.0618 5.1113L33.0552 3.11785C33.1019 3.0712 33.1389 3.01583 33.1641 2.95489C33.1894 2.89395 33.2024 2.82863 33.2024 2.76267C33.2024 2.69671 33.1894 2.63139 33.1641 2.57045C33.1389 2.50951 33.1019 2.45414 33.0552 2.40749C33.0086 2.36085 32.9532 2.32385 32.8923 2.29861C32.8314 2.27337 32.766 2.26038 32.7001 2.26038C32.6341 2.26038 32.5688 2.27337 32.5079 2.29861C32.4469 2.32385 32.3915 2.36085 32.3449 2.40749L30.3514 4.40095C30.2812 4.47119 30.2333 4.56069 30.2139 4.65815C30.1945 4.7556 30.2044 4.85661 30.2424 4.94842C30.2805 5.04022 30.3449 5.11868 30.4275 5.17387C30.5101 5.22906 30.6073 5.2585 30.7066 5.25847ZM32.7657 10.5394C32.7651 10.6054 32.7775 10.6708 32.8022 10.732C32.827 10.7932 32.8635 10.8489 32.9097 10.8959C32.956 10.943 33.011 10.9805 33.0717 11.0063C33.1325 11.032 33.1977 11.0456 33.2636 11.0462L35.2572 11.0635H35.2617C35.3933 11.0616 35.5188 11.0081 35.6113 10.9145C35.7039 10.821 35.756 10.6949 35.7566 10.5633C35.7572 10.4317 35.7061 10.3052 35.6144 10.2109C35.5226 10.1165 35.3975 10.062 35.266 10.0589L33.2724 10.0415C33.2065 10.0409 33.141 10.0533 33.0799 10.078C33.0187 10.1027 32.963 10.1393 32.9159 10.1855C32.8689 10.2317 32.8314 10.2868 32.8056 10.3475C32.7798 10.4082 32.7663 10.4735 32.7657 10.5394ZM32.239 6.96882C32.2919 7.09111 32.3912 7.18738 32.5151 7.23646C32.6389 7.28555 32.7772 7.28342 32.8995 7.23054L34.893 6.36892C34.9536 6.34276 35.0084 6.30492 35.0543 6.25758C35.1003 6.21023 35.1364 6.1543 35.1607 6.09298C35.185 6.03166 35.197 5.96615 35.196 5.90019C35.195 5.83423 35.181 5.76912 35.1549 5.70857C35.1287 5.64801 35.0909 5.59321 35.0435 5.54727C34.9962 5.50134 34.9402 5.46519 34.8789 5.44088C34.8176 5.41656 34.7521 5.40457 34.6861 5.40558C34.6202 5.40659 34.5551 5.42058 34.4945 5.44675L32.501 6.30837C32.4404 6.33454 32.3856 6.37237 32.3396 6.41973C32.2937 6.46708 32.2575 6.52302 32.2332 6.58435C32.2089 6.64568 32.1969 6.7112 32.1979 6.77717C32.1989 6.84313 32.2129 6.90826 32.239 6.96882ZM35.2659 14.295L33.2723 14.2775C32.9941 14.2765 32.768 14.498 32.7656 14.7755C32.765 14.8414 32.7774 14.9069 32.8021 14.968C32.8269 15.0292 32.8634 15.0849 32.9096 15.132C32.9559 15.179 33.0109 15.2165 33.0716 15.2423C33.1324 15.2681 33.1976 15.2816 33.2635 15.2822L35.2571 15.2997H35.2616C35.3948 15.3003 35.5228 15.2479 35.6174 15.1541C35.712 15.0603 35.7655 14.9327 35.7661 14.7995C35.7667 14.6663 35.7143 14.5383 35.6205 14.4436C35.5267 14.349 35.3991 14.2956 35.2659 14.295ZM35.2659 18.5311L33.2723 18.5136C32.9941 18.5135 32.768 18.7341 32.7656 19.0116C32.765 19.0776 32.7774 19.143 32.8021 19.2042C32.8269 19.2653 32.8634 19.321 32.9096 19.3681C32.9559 19.4152 33.0109 19.4526 33.0716 19.4784C33.1324 19.5042 33.1976 19.5178 33.2635 19.5183L35.2571 19.5358H35.2616C35.3948 19.5364 35.5228 19.484 35.6174 19.3902C35.712 19.2964 35.7655 19.1689 35.7661 19.0356C35.7667 18.9024 35.7143 18.7744 35.6205 18.6798C35.5267 18.5852 35.3991 18.5317 35.2659 18.5311ZM8.04636 21.954H8.05085L10.0443 21.9366C10.1754 21.9329 10.2999 21.8781 10.3912 21.7838C10.4824 21.6896 10.5332 21.5634 10.5327 21.4322C10.5321 21.301 10.4802 21.1753 10.3882 21.0818C10.2961 20.9883 10.1712 20.9346 10.04 20.932H10.0355L8.04206 20.9494C7.91093 20.9531 7.78643 21.0079 7.69518 21.1021C7.60392 21.1964 7.55315 21.3226 7.55372 21.4538C7.55428 21.585 7.60613 21.7107 7.69818 21.8042C7.79024 21.8977 7.9152 21.9514 8.04636 21.954ZM10.8071 17.1989L8.81365 16.3373C8.69135 16.2844 8.55306 16.2823 8.42921 16.3314C8.30536 16.3805 8.20609 16.4768 8.15325 16.5991C8.1004 16.7214 8.0983 16.8597 8.1474 16.9836C8.19651 17.1074 8.29281 17.2067 8.41511 17.2595L10.4086 18.1212C10.4691 18.1473 10.5342 18.1613 10.6002 18.1623C10.6662 18.1633 10.7317 18.1513 10.793 18.127C10.8543 18.1027 10.9103 18.0665 10.9576 18.0206C11.005 17.9747 11.0428 17.9199 11.069 17.8593C11.0951 17.7987 11.1091 17.7336 11.1101 17.6677C11.1111 17.6017 11.0991 17.5362 11.0748 17.4749C11.0505 17.4135 11.0143 17.3576 10.9684 17.3103C10.9225 17.2629 10.8677 17.2251 10.8071 17.1989ZM15.6976 13.298C15.6034 13.2039 15.4757 13.151 15.3425 13.151C15.2092 13.151 15.0815 13.2039 14.9873 13.298L12.9938 15.2917C12.8996 15.3859 12.8467 15.5136 12.8467 15.6468C12.8467 15.78 12.8997 15.9078 12.9939 16.002C13.0881 16.0962 13.2158 16.1491 13.349 16.1491C13.4822 16.1491 13.61 16.0961 13.7042 16.0019L15.6976 14.0084C15.7443 13.9617 15.7813 13.9064 15.8065 13.8454C15.8318 13.7845 15.8448 13.7192 15.8448 13.6532C15.8448 13.5872 15.8318 13.5219 15.8065 13.461C15.7813 13.4 15.7443 13.3447 15.6976 13.298ZM17.9082 20.9494L15.9147 20.932C15.8487 20.9313 15.7832 20.9437 15.722 20.9683C15.6608 20.993 15.605 21.0295 15.558 21.0758C15.5109 21.122 15.4734 21.1771 15.4477 21.2379C15.4219 21.2987 15.4084 21.364 15.408 21.43C15.4068 21.5632 15.4587 21.6914 15.552 21.7864C15.6454 21.8814 15.7727 21.9354 15.9059 21.9366L17.8994 21.954H17.9039C18.035 21.9514 18.16 21.8977 18.2521 21.8042C18.3441 21.7107 18.396 21.585 18.3965 21.4538C18.3971 21.3226 18.3463 21.1964 18.2551 21.1021C18.1638 21.0079 18.0393 20.9531 17.9082 20.9494ZM17.5352 17.2595C17.6549 17.205 17.7485 17.1057 17.7958 16.9829C17.8431 16.8602 17.8404 16.7238 17.7882 16.603C17.736 16.4822 17.6385 16.3868 17.5167 16.3371C17.3949 16.2874 17.2585 16.2875 17.1367 16.3373L15.1432 17.1989C15.0232 17.2533 14.9294 17.3526 14.8819 17.4755C14.8344 17.5984 14.8371 17.735 14.8894 17.8559C14.9417 17.9768 15.0393 18.0724 15.1614 18.122C15.2834 18.1716 15.42 18.1713 15.5419 18.1212L17.5352 17.2595ZM10.5423 25.6662C10.5411 25.5337 10.4877 25.4071 10.3936 25.3138C10.2996 25.2206 10.1725 25.1683 10.04 25.1682H10.0355L8.04206 25.1855C7.91093 25.1892 7.78643 25.244 7.69518 25.3383C7.60392 25.4325 7.55315 25.5587 7.55372 25.6899C7.55428 25.8211 7.60613 25.9469 7.69818 26.0403C7.79024 26.1338 7.9152 26.1876 8.04636 26.1901H8.05085L10.0443 26.1727C10.1103 26.1722 10.1755 26.1586 10.2362 26.1329C10.2969 26.1071 10.352 26.0696 10.3982 26.0226C10.4444 25.9756 10.481 25.9199 10.5057 25.8587C10.5304 25.7976 10.5428 25.7321 10.5423 25.6662ZM9.94841 29.4127L8.52283 29.6767C8.45796 29.6887 8.3961 29.7134 8.34077 29.7493C8.28544 29.7853 8.23772 29.8317 8.20035 29.8861C8.16298 29.9405 8.13669 30.0017 8.12297 30.0662C8.10925 30.1307 8.10837 30.1973 8.12038 30.2622C8.1324 30.327 8.15708 30.3889 8.193 30.4442C8.22893 30.4996 8.2754 30.5473 8.32976 30.5847C8.38412 30.622 8.44532 30.6483 8.50984 30.662C8.57437 30.6758 8.64097 30.6766 8.70583 30.6646L10.1314 30.4006C10.1963 30.3885 10.2581 30.3639 10.3135 30.3279C10.3688 30.292 10.4165 30.2455 10.4539 30.1912C10.4913 30.1368 10.5176 30.0756 10.5313 30.0111C10.545 29.9466 10.5459 29.88 10.5339 29.8151C10.5218 29.7502 10.4972 29.6884 10.4612 29.6331C10.4253 29.5777 10.3788 29.53 10.3245 29.4926C10.2701 29.4553 10.2089 29.429 10.1444 29.4153C10.0799 29.4015 10.0133 29.4007 9.94841 29.4127ZM35.2659 22.7673L33.2723 22.7498H33.2678C33.1358 22.751 33.0095 22.8041 32.9163 22.8977C32.8231 22.9913 32.7706 23.1179 32.77 23.25C32.7695 23.382 32.8209 23.509 32.9133 23.6034C33.0057 23.6978 33.1315 23.7521 33.2635 23.7544L35.2571 23.7719H35.2616C35.3937 23.7707 35.52 23.7175 35.6131 23.6239C35.7063 23.5303 35.7589 23.4038 35.7594 23.2717C35.76 23.1396 35.7085 23.0126 35.6161 22.9182C35.5238 22.8238 35.3979 22.7696 35.2659 22.7673ZM33.2723 26.9861C32.9941 26.9873 32.768 27.2066 32.7656 27.4841C32.7645 27.6173 32.8163 27.7455 32.9097 27.8405C33.003 27.9355 33.1303 27.9895 33.2635 27.9907L35.2571 28.0081H35.2616C35.3928 28.0055 35.5177 27.9518 35.6098 27.8583C35.7018 27.7648 35.7537 27.6391 35.7542 27.5079C35.7548 27.3767 35.704 27.2505 35.6128 27.1562C35.5215 27.062 35.397 27.0072 35.2659 27.0035L33.2723 26.9861ZM21.1134 10.0415H21.1089L19.1154 10.0589C18.9839 10.062 18.8588 10.1165 18.767 10.2109C18.6753 10.3052 18.6242 10.4317 18.6248 10.5633C18.6253 10.6949 18.6775 10.821 18.77 10.9145C18.8626 11.0081 18.9881 11.0616 19.1197 11.0635H19.1242L21.1177 11.0462C21.2492 11.0431 21.3743 10.9885 21.466 10.8942C21.5578 10.7998 21.6088 10.6733 21.6083 10.5417C21.6077 10.4101 21.5555 10.284 21.463 10.1905C21.3705 10.097 21.2449 10.0434 21.1134 10.0415ZM21.8804 6.30847L19.887 5.44685C19.8264 5.42063 19.7613 5.40661 19.6954 5.40558C19.6294 5.40456 19.5639 5.41654 19.5025 5.44086C19.4412 5.46518 19.3853 5.50135 19.3379 5.5473C19.2906 5.59325 19.2528 5.64809 19.2266 5.70867C19.2005 5.76922 19.1865 5.83433 19.1855 5.90029C19.1845 5.96624 19.1964 6.03175 19.2208 6.09307C19.2451 6.1544 19.2812 6.21033 19.3272 6.25767C19.3731 6.30502 19.4279 6.34286 19.4885 6.36902L21.4819 7.23064C21.5426 7.25783 21.6081 7.27268 21.6746 7.27435C21.7411 7.27602 21.8073 7.26446 21.8693 7.24034C21.9313 7.21623 21.9879 7.18005 22.0358 7.13389C22.0837 7.08773 22.1219 7.03251 22.1483 6.97145C22.1747 6.91038 22.1887 6.84469 22.1895 6.77817C22.1903 6.71165 22.1779 6.64564 22.153 6.58396C22.128 6.52229 22.0911 6.46617 22.0443 6.41888C21.9976 6.37159 21.9418 6.33406 21.8804 6.30847ZM21.1134 14.2776H21.1089L19.1154 14.2951C18.9843 14.2988 18.8598 14.3536 18.7685 14.4478C18.6773 14.5421 18.6265 14.6683 18.6271 14.7995C18.6276 14.9307 18.6795 15.0564 18.7715 15.1499C18.8636 15.2434 18.9885 15.2971 19.1197 15.2997H19.1242L21.1177 15.2822C21.2488 15.2785 21.3733 15.2237 21.4645 15.1295C21.5558 15.0352 21.6066 14.909 21.606 14.7778C21.6054 14.6466 21.5536 14.5209 21.4615 14.4274C21.3695 14.3339 21.2445 14.2802 21.1134 14.2776ZM21.1089 18.5137L19.1154 18.5312C18.9843 18.5349 18.8598 18.5897 18.7685 18.684C18.6773 18.7782 18.6265 18.9044 18.6271 19.0356C18.6276 19.1668 18.6795 19.2926 18.7715 19.386C18.8636 19.4795 18.9885 19.5333 19.1197 19.5358H19.1242L21.1177 19.5183C21.2509 19.5171 21.3782 19.4631 21.4716 19.3681C21.5649 19.273 21.6167 19.1448 21.6156 19.0116C21.6152 18.9456 21.6018 18.8803 21.5761 18.8194C21.5504 18.7586 21.5129 18.7035 21.4658 18.6572C21.4187 18.6109 21.363 18.5744 21.3017 18.5498C21.2404 18.5252 21.1749 18.5129 21.1089 18.5137ZM21.1134 22.7499H21.1089L19.1154 22.7674C18.9843 22.771 18.8598 22.8259 18.7685 22.9201C18.6773 23.0144 18.6265 23.1406 18.6271 23.2718C18.6276 23.4029 18.6795 23.5287 18.7715 23.6222C18.8636 23.7156 18.9885 23.7694 19.1197 23.7719H19.1242L21.1177 23.7545C21.2488 23.7508 21.3733 23.696 21.4645 23.6017C21.5558 23.5075 21.6066 23.3813 21.606 23.2501C21.6054 23.1189 21.5536 22.9931 21.4615 22.8997C21.3695 22.8062 21.2445 22.7524 21.1134 22.7499Z" fill="#666666" fill-opacity="0.82"/>
<path d="M27.134 2.13361C23.2498 2.13361 20.1015 5.28195 20.1015 9.16613V25.9912L17.1172 25.187V18.1067C17.1172 15.8872 15.318 14.0881 13.0986 14.0881C10.8792 14.0881 9.08008 15.8872 9.08008 18.1067V28.266C9.08008 30.0827 10.2989 31.6735 12.053 32.1462L20.1015 34.3151V44.6775C20.1015 48.5616 23.2498 49.0097 27.134 49.0097C31.0182 49.0097 34.1665 48.5616 34.1665 44.6775V9.16613C34.1666 5.28195 31.0182 2.13361 27.134 2.13361Z" fill="#666666" fill-opacity="0.82"/>
<path d="M19.1196 28.0081C18.9876 28.0069 18.8613 27.9538 18.7681 27.8602C18.6749 27.7665 18.6224 27.64 18.6218 27.5079C18.6212 27.3759 18.6727 27.2489 18.7651 27.1545C18.8574 27.0601 18.9833 27.0058 19.1153 27.0035L21.1088 26.9861H21.1133C21.2454 26.9873 21.3716 27.0405 21.4648 27.1341C21.558 27.2277 21.6105 27.3542 21.6111 27.4863C21.6117 27.6184 21.5602 27.7454 21.4678 27.8398C21.3755 27.9342 21.2496 27.9884 21.1176 27.9907L19.1241 28.0081H19.1196ZM27.6366 12.4244V1.08828C27.6366 0.955051 27.5837 0.827278 27.4895 0.733071C27.3953 0.638863 27.2675 0.585938 27.1343 0.585938C27.001 0.585938 26.8733 0.638863 26.7791 0.733071C26.6849 0.827278 26.6319 0.955051 26.6319 1.08828V12.4244C26.6319 12.5576 26.6849 12.6854 26.7791 12.7796C26.8733 12.8738 27.001 12.9268 27.1343 12.9268C27.2675 12.9268 27.3953 12.8738 27.4895 12.7796C27.5837 12.6854 27.6366 12.5576 27.6366 12.4244ZM31.0447 9.16611V2.64961C31.0447 2.51638 30.9918 2.38861 30.8976 2.2944C30.8034 2.20019 30.6756 2.14727 30.5424 2.14727C30.4092 2.14727 30.2814 2.20019 30.1872 2.2944C30.093 2.38861 30.04 2.51638 30.04 2.64961V9.16611C30.04 9.29934 30.093 9.42712 30.1872 9.52132C30.2814 9.61553 30.4092 9.66846 30.5424 9.66846C30.6756 9.66846 30.8034 9.61553 30.8976 9.52132C30.9918 9.42712 31.0447 9.29934 31.0447 9.16611ZM32.0493 18.941V12.4244C32.0493 12.2912 31.9964 12.1634 31.9022 12.0692C31.808 11.975 31.6802 11.9221 31.547 11.9221C31.4137 11.9221 31.286 11.975 31.1918 12.0692C31.0976 12.1634 31.0446 12.2912 31.0446 12.4244V18.941C31.0446 19.0742 31.0976 19.202 31.1918 19.2962C31.286 19.3904 31.4137 19.4434 31.547 19.4434C31.6802 19.4434 31.808 19.3904 31.9022 19.2962C31.9964 19.202 32.0493 19.0742 32.0493 18.941ZM22.7563 20.4889V13.9724C22.7563 13.8391 22.7034 13.7114 22.6092 13.6172C22.515 13.5229 22.3872 13.47 22.254 13.47C22.1208 13.47 21.993 13.5229 21.8988 13.6172C21.8046 13.7114 21.7517 13.8391 21.7517 13.9724V20.4889C21.7517 20.6221 21.8046 20.7499 21.8988 20.8441C21.993 20.9383 22.1208 20.9912 22.254 20.9912C22.3872 20.9912 22.515 20.9383 22.6092 20.8441C22.7034 20.7499 22.7563 20.6221 22.7563 20.4889ZM26.2727 27.1909V15.3837C26.2727 15.2505 26.2197 15.1227 26.1255 15.0285C26.0313 14.9343 25.9035 14.8813 25.7703 14.8813C25.6371 14.8813 25.5093 14.9343 25.4151 15.0285C25.3209 15.1227 25.268 15.2505 25.268 15.3837V27.1909C25.268 27.3241 25.3209 27.4519 25.4151 27.5461C25.5093 27.6403 25.6371 27.6933 25.7703 27.6933C25.9035 27.6933 26.0313 27.6403 26.1255 27.5461C26.2197 27.4519 26.2727 27.3241 26.2727 27.1909ZM29.9803 30.1707V23.6541C29.9803 23.5209 29.9273 23.3931 29.8331 23.2989C29.7389 23.2047 29.6112 23.1518 29.4779 23.1518C29.3447 23.1518 29.2169 23.2047 29.1227 23.2989C29.0285 23.3931 28.9756 23.5209 28.9756 23.6541V30.1707C28.9756 30.3039 29.0285 30.4317 29.1227 30.5259C29.2169 30.6201 29.3447 30.673 29.4779 30.673C29.6112 30.673 29.7389 30.6201 29.8331 30.5259C29.9273 30.4317 29.9803 30.3039 29.9803 30.1707ZM23.1802 36.318V29.8014C23.1802 29.6681 23.1273 29.5404 23.033 29.4462C22.9388 29.352 22.8111 29.299 22.6778 29.299C22.5446 29.299 22.4168 29.352 22.3226 29.4462C22.2284 29.5404 22.1755 29.6681 22.1755 29.8014V36.318C22.1755 36.4512 22.2284 36.579 22.3226 36.6732C22.4168 36.7674 22.5446 36.8203 22.6778 36.8203C22.8111 36.8203 22.9388 36.7674 23.033 36.6732C23.1273 36.579 23.1802 36.4512 23.1802 36.318ZM27.6366 46.499V34.3838C27.6366 34.2506 27.5837 34.1228 27.4895 34.0286C27.3953 33.9344 27.2675 33.8814 27.1343 33.8814C27.001 33.8814 26.8733 33.9344 26.7791 34.0286C26.6849 34.1228 26.6319 34.2506 26.6319 34.3838V46.499C26.6319 46.6323 26.6849 46.76 26.7791 46.8542C26.8733 46.9484 27.001 47.0014 27.1343 47.0014C27.2675 47.0014 27.3953 46.9484 27.4895 46.8542C27.5837 46.76 27.6366 46.6323 27.6366 46.499ZM32.0493 41.7688V35.2521C32.0493 35.1189 31.9964 34.9911 31.9022 34.8969C31.808 34.8027 31.6802 34.7498 31.547 34.7498C31.4137 34.7498 31.286 34.8027 31.1918 34.8969C31.0976 34.9911 31.0446 35.1189 31.0446 35.2521V41.7688C31.0446 41.902 31.0976 42.0298 31.1918 42.124C31.286 42.2182 31.4137 42.2711 31.547 42.2711C31.6802 42.2711 31.808 42.2182 31.9022 42.124C31.9964 42.0298 32.0493 41.902 32.0493 41.7688ZM25.1973 5.52549V1.32695C25.1973 1.19372 25.1443 1.06595 25.0501 0.971742C24.9559 0.877535 24.8282 0.824609 24.6949 0.824609C24.5617 0.824609 24.4339 0.877535 24.3397 0.971742C24.2455 1.06595 24.1926 1.19372 24.1926 1.32695V5.52549C24.1926 5.65872 24.2455 5.78649 24.3397 5.8807C24.4339 5.97491 24.5617 6.02783 24.6949 6.02783C24.8282 6.02783 24.9559 5.97491 25.0501 5.8807C25.1443 5.78649 25.1973 5.65872 25.1973 5.52549ZM12.2541 19.0335V14.7974C12.2541 14.7314 12.2411 14.6661 12.2159 14.6051C12.1906 14.5442 12.1536 14.4888 12.1069 14.4422L10.9628 13.298C10.8678 13.2076 10.7413 13.1578 10.6101 13.1594C10.479 13.161 10.3537 13.2138 10.2609 13.3065C10.1682 13.3993 10.1154 13.5246 10.1138 13.6557C10.1122 13.7869 10.162 13.9134 10.2524 14.0084L11.2494 15.0055V19.0335C11.2494 19.1667 11.3023 19.2945 11.3965 19.3887C11.4908 19.4829 11.6185 19.5358 11.7518 19.5358C11.885 19.5358 12.0128 19.4829 12.107 19.3887C12.2012 19.2945 12.2541 19.1667 12.2541 19.0335ZM14.8479 23.2522V16.7984C14.8479 16.6652 14.795 16.5374 14.7008 16.4432C14.6066 16.349 14.4788 16.2961 14.3456 16.2961C14.2124 16.2961 14.0846 16.349 13.9904 16.4432C13.8962 16.5374 13.8433 16.6652 13.8433 16.7984V23.2522C13.8433 23.3855 13.8962 23.5132 13.9904 23.6075C14.0846 23.7017 14.2124 23.7546 14.3456 23.7546C14.4788 23.7546 14.6066 23.7017 14.7008 23.6075C14.795 23.5132 14.8479 23.3855 14.8479 23.2522ZM11.6821 26.1218V22.7426C11.6821 22.6093 11.6292 22.4816 11.535 22.3874C11.4408 22.2932 11.313 22.2402 11.1798 22.2402C11.0466 22.2402 10.9188 22.2932 10.8246 22.3874C10.7304 22.4816 10.6774 22.6093 10.6774 22.7426V26.1218C10.6774 26.255 10.7304 26.3828 10.8246 26.477C10.9188 26.5712 11.0466 26.6241 11.1798 26.6241C11.313 26.6241 11.4408 26.5712 11.535 26.477C11.6292 26.3828 11.6821 26.255 11.6821 26.1218ZM13.601 31.6573V25.894C13.601 25.7608 13.5481 25.633 13.4538 25.5388C13.3596 25.4446 13.2319 25.3917 13.0986 25.3917C12.9654 25.3917 12.8376 25.4446 12.7434 25.5388C12.6492 25.633 12.5963 25.7608 12.5963 25.894V31.6573C12.5963 31.7906 12.6492 31.9183 12.7434 32.0125C12.8376 32.1067 12.9654 32.1597 13.0986 32.1597C13.2319 32.1597 13.3596 32.1067 13.4538 32.0125C13.5481 31.9183 13.601 31.7906 13.601 31.6573ZM17.4093 30.8312V27.452C17.4093 27.3187 17.3564 27.191 17.2621 27.0967C17.1679 27.0025 17.0402 26.9496 16.9069 26.9496C16.7737 26.9496 16.6459 27.0025 16.5517 27.0967C16.4575 27.191 16.4046 27.3187 16.4046 27.452V30.8312C16.4046 30.9644 16.4575 31.0922 16.5517 31.1864C16.6459 31.2806 16.7737 31.3335 16.9069 31.3335C17.0402 31.3335 17.1679 31.2806 17.2621 31.1864C17.3564 31.0922 17.4093 30.9644 17.4093 30.8312ZM24.1769 44.1624V40.9042C24.1769 40.771 24.1239 40.6432 24.0297 40.549C23.9355 40.4548 23.8077 40.4019 23.6745 40.4019C23.5413 40.4019 23.4135 40.4548 23.3193 40.549C23.2251 40.6432 23.1722 40.771 23.1722 40.9042V44.1624C23.1722 44.2956 23.2251 44.4234 23.3193 44.5176C23.4135 44.6118 23.5413 44.6647 23.6745 44.6647C23.8077 44.6647 23.9355 44.6118 24.0297 44.5176C24.1239 44.4234 24.1769 44.2956 24.1769 44.1624ZM23.0542 3.43984C23.057 3.43789 23.0597 3.43574 23.0625 3.43369L22.0363 2.40752C21.9414 2.31705 21.8148 2.2673 21.6837 2.26888C21.5525 2.27047 21.4272 2.32327 21.3345 2.41601C21.2417 2.50875 21.1889 2.63407 21.1873 2.76521C21.1858 2.89635 21.2355 3.02292 21.326 3.11787L22.1756 3.96748V9.16611C22.1756 9.29934 22.2285 9.42712 22.3227 9.52132C22.4169 9.61553 22.5447 9.66846 22.6779 9.66846C22.8112 9.66846 22.9389 9.61553 23.0331 9.52132C23.1273 9.42712 23.1803 9.29934 23.1803 9.16611V3.76934C23.1798 3.64781 23.135 3.53065 23.0542 3.43984Z" fill="#666666" fill-opacity="0.82"/>
</svg>
