<svg width="101" height="100" viewBox="0 0 101 100" fill="none" xmlns="http://www.w3.org/2000/svg">
<path fill-rule="evenodd" clip-rule="evenodd" d="M90.7326 30.0144H75.7716V26.2083H100.654V4.68566H95.6144V0H55.1416V4.68533H50.2595V34.6997H45.2208V39.2384H37.8193V43.9237H30.4174V48.6087H25.378V53.1477H16.2441V48.4623H11.3623V43.9237H6.32287V34.6997H0.653809V63.1038H5.53561V67.7888H10.5747V72.3278H15.4568V77.0128H20.4962V81.5517H25.378V99.9997H36.0868V94.7282H31.2047V90.776H36.0868V86.2371H41.1262V81.5521H45.2204V86.2371H50.2598V100H60.9686V94.7282H55.9292V77.0124H60.9686V72.3281H65.8504V65.4466H70.8898V49.3412H74.9844V53.8802H80.811V43.924H70.8902V35.4322H90.7326V30.0144Z" fill="#666666"/>
<path fill-rule="evenodd" clip-rule="evenodd" d="M60.0239 6.73511H66.0082V12.2986H60.0239V6.73511Z" fill="white"/>
</svg>
