<svg width="500" height="500" viewBox="0 0 500 500" fill="none" xmlns="http://www.w3.org/2000/svg">
<g clip-path="url(#clip0_11_4)">
<path fill-rule="evenodd" clip-rule="evenodd" d="M449.87 150.072H375.261V131.041H499.347V23.4283H474.216V0H272.381V23.4267H248.034V173.499H222.906V196.192H185.995V219.619H149.083V243.044H123.952V265.738H78.4013V242.312H54.0561V219.619H28.925V173.499H0.653809V315.519H24.999V338.944H50.1284V361.639H74.4754V385.064H99.6065V407.759H123.952V499.998H177.356V473.641H153.009V453.88H177.356V431.185H202.487V407.76H222.904V431.185H248.035V500H301.44V473.641H276.308V385.062H301.44V361.64H325.785V327.233H350.916V246.706H371.335V269.401H400.392V219.62H350.918V177.161H449.87V150.072Z" fill="#666666"/>
<path fill-rule="evenodd" clip-rule="evenodd" d="M296.728 33.6755H326.571V61.4932H296.728V33.6755Z" fill="white"/>
</g>
<defs>
<clipPath id="clip0_11_4">
<rect width="500" height="500" fill="white"/>
</clipPath>
</defs>
</svg>
